<svg width="51" height="45" viewBox="0 0 51 45" fill="none" xmlns="http://www.w3.org/2000/svg">
<rect width="45" height="45" rx="7" fill="url(#paint0_linear_7_235)"/>
<g filter="url(#filter0_d_7_235)">
<path fill-rule="evenodd" clip-rule="evenodd" d="M8.25064 11.4772C8.26442 11.489 8.39451 11.5776 8.53971 11.6742C8.92007 11.9271 9.43801 12.3093 9.83329 12.6287C10.2736 12.9846 11.0429 13.733 11.3253 14.0803C12.0478 14.9687 12.4106 15.7615 12.4176 16.467C12.4197 16.6839 12.4285 16.7535 12.4528 16.7446C12.6336 16.6783 13.6532 16.5307 14.3608 16.4684C14.8787 16.4229 17.1012 16.4228 17.6739 16.4683C18.4482 16.5299 19.7279 16.6784 19.7609 16.7106C19.7661 16.7156 19.6431 16.7403 19.4877 16.7655C16.8776 17.1884 13.7204 18.0711 11.4173 19.022C10.9385 19.2196 10.9326 19.2016 11.4965 19.2655C13.1992 19.4585 14.9077 19.5093 16.0394 19.8715L20.2987 17.3483L17.285 19.8715C18.2717 19.6489 18.7597 19.7649 19.8969 19.6579L22.8705 17.7505L20.9417 19.6579C20.9417 19.6579 21.7886 19.6485 22.8705 19.6623L24.4777 18.4899L23.3727 19.6719C24.4388 19.6996 26.0523 19.7643 26.7422 19.8715C27.4769 19.9858 28.3706 20.165 28.4172 20.2074C28.4318 20.2207 28.234 20.2302 27.942 20.2302C24.7105 20.2304 20.2196 20.9231 17.0513 21.9098L16.7719 21.9969L16.5256 21.9102C15.075 21.42 10.7147 20.7627 9.7307 20.549L13.1061 22.5616L2.69873 20.3654C2.69873 20.3654 10.3487 24.1067 11.7398 24.8911C13.1309 25.6756 19.9766 30.0454 23.0621 33.3661C22.8996 33.1473 23.3796 33.7078 23.0621 33.3661C23.1274 33.4542 20.6218 30.1095 20.6307 30.1099C20.6527 30.1109 21.147 30.1915 21.147 30.1915C21.147 30.1915 20.4966 29.4729 20.4723 29.411L20.6307 29.3325C22.1631 28.5729 25.6418 27.7379 29.7649 27.1399C30.1134 27.0893 30.4935 27.0302 30.6097 27.0084C31.4839 26.8444 32.1021 26.5196 32.3183 26.1106C32.4382 25.8836 32.3964 25.5028 32.2139 25.1607C32.0263 24.8088 31.5343 24.392 30.9397 24.0811C29.662 23.413 27.3294 22.8583 24.5774 22.5682L24.2738 22.5362L24.419 22.5042C24.4989 22.4866 24.7721 22.4427 25.0262 22.4066C27.2274 22.0944 29.3451 22.1248 31.2433 22.4959C32.8105 22.8023 34.2512 23.372 34.7514 23.8831C35.1469 24.2873 35.1693 24.8339 34.8115 25.3516C34.7592 25.4274 34.7209 25.4939 34.7265 25.4994C34.7414 25.5139 35.2737 25.3641 35.7312 25.2166C37.8416 24.5363 39.7785 23.425 41.3658 21.9838C41.6795 21.6989 42.2381 21.1115 42.2385 21.0661C42.2387 21.0368 41.56 20.6101 40.9583 20.2614C36.8435 17.876 31.9373 16.498 26.6404 16.2398C25.4936 16.1839 23.4437 16.2281 22.5121 16.3286L22.2288 16.3592L21.9181 16.0538C20.3618 14.5236 18.1585 13.3196 15.4621 12.5257C13.5098 11.9509 11.3613 11.5973 9.1205 11.4818C8.50798 11.4502 8.2174 11.4487 8.25064 11.4772ZM31.1481 18.1435C32.7171 18.3661 34.0814 19.3259 34.0814 19.3667C34.0814 19.4074 32.0321 18.7959 32.0321 18.7959L32.1526 19.1628C31.6493 18.7143 29.5141 17.9714 29.5141 17.9714C29.4911 17.9491 30.7548 18.0877 31.1481 18.1435Z" fill="#D9D9D9"/>
</g>
<defs>
<filter id="filter0_d_7_235" x="2.69873" y="11.4569" width="47.5397" height="33.0226" filterUnits="userSpaceOnUse" color-interpolation-filters="sRGB">
<feFlood flood-opacity="0" result="BackgroundImageFix"/>
<feColorMatrix in="SourceAlpha" type="matrix" values="0 0 0 0 0 0 0 0 0 0 0 0 0 0 0 0 0 0 127 0" result="hardAlpha"/>
<feOffset dx="4" dy="7"/>
<feGaussianBlur stdDeviation="2"/>
<feComposite in2="hardAlpha" operator="out"/>
<feColorMatrix type="matrix" values="0 0 0 0 0 0 0 0 0 0 0 0 0 0 0 0 0 0 0.25 0"/>
<feBlend mode="normal" in2="BackgroundImageFix" result="effect1_dropShadow_7_235"/>
<feBlend mode="normal" in="SourceGraphic" in2="effect1_dropShadow_7_235" result="shape"/>
</filter>
<linearGradient id="paint0_linear_7_235" x1="-11.9561" y1="21.3543" x2="54.1005" y2="21.8185" gradientUnits="userSpaceOnUse">
<stop stop-color="#0F4C75"/>
<stop offset="0.0001" stop-color="#1B262C"/>
<stop offset="1" stop-color="#0F4C75"/>
</linearGradient>
</defs>
</svg>
